<?xml version="1.0" encoding="UTF-8" standalone="no"?>
<!DOCTYPE svg PUBLIC "-//W3C//DTD SVG 1.1//EN"
 "http://www.w3.org/Graphics/SVG/1.1/DTD/svg11.dtd">
<!-- Generated by graphviz version 2.43.0 (0)
 -->
<!-- Title: DUMP Pages: 1 -->
<svg width="429pt" height="175pt"
 viewBox="0.00 0.00 429.00 175.00" xmlns="http://www.w3.org/2000/svg" xmlns:xlink="http://www.w3.org/1999/xlink">
<g id="graph0" class="graph" transform="scale(1 1) rotate(0) translate(4 171)">
<title>DUMP</title>
<polygon fill="white" stroke="transparent" points="-4,4 -4,-171 425,-171 425,4 -4,4"/>
<!-- node0 -->
<g id="node1" class="node">
<title>node0</title>
<polygon fill="#0bdfee" stroke="transparent" points="8,-4 8,-163 413,-163 413,-4 8,-4"/>
<polygon fill="#ffffff" stroke="transparent" points="11.5,-123.5 11.5,-159.5 410.5,-159.5 410.5,-123.5 11.5,-123.5"/>
<polygon fill="none" stroke="#383838" stroke-width="2" points="12.5,-124.5 12.5,-158.5 409.5,-158.5 409.5,-124.5 12.5,-124.5"/>
<text text-anchor="start" x="177" y="-135.3" font-family="Arial" font-size="24.00">node0</text>
<polygon fill="#00ff44" stroke="transparent" stroke-width="2" points="11.5,-84.5 11.5,-120.5 410.5,-120.5 410.5,-84.5 11.5,-84.5"/>
<polygon fill="none" stroke="#000000" stroke-width="2" points="12.5,-85.5 12.5,-119.5 409.5,-119.5 409.5,-85.5 12.5,-85.5"/>
<text text-anchor="start" x="120.5" y="-96.3" font-family="Arial" font-size="24.00">0x5030000001f0</text>
<polygon fill="#c5a1e6" stroke="transparent" stroke-width="2" points="11.5,-45.5 11.5,-81.5 410.5,-81.5 410.5,-45.5 11.5,-45.5"/>
<polygon fill="none" stroke="#000000" stroke-width="2" points="12.5,-46.5 12.5,-80.5 409.5,-80.5 409.5,-46.5 12.5,-46.5"/>
<text text-anchor="start" x="176" y="-57.3" font-family="Arial" font-size="24.00">ROOT</text>
<polygon fill="#cccccc" stroke="transparent" stroke-width="2" points="11.5,-6.5 11.5,-42.5 209.5,-42.5 209.5,-6.5 11.5,-6.5"/>
<polygon fill="none" stroke="#000000" stroke-width="2" points="12.5,-7.5 12.5,-41.5 208.5,-41.5 208.5,-7.5 12.5,-7.5"/>
<text text-anchor="start" x="16.5" y="-18.3" font-family="Arial" font-size="24.00">0x000000000000</text>
<polygon fill="#cccccc" stroke="transparent" stroke-width="2" points="212.5,-6.5 212.5,-42.5 410.5,-42.5 410.5,-6.5 212.5,-6.5"/>
<polygon fill="none" stroke="#000000" stroke-width="2" points="213.5,-7.5 213.5,-41.5 409.5,-41.5 409.5,-7.5 213.5,-7.5"/>
<text text-anchor="start" x="217.5" y="-18.3" font-family="Arial" font-size="24.00">0x000000000000</text>
</g>
</g>
</svg>
