<?xml version="1.0" encoding="UTF-8" standalone="no"?>
<!DOCTYPE svg PUBLIC "-//W3C//DTD SVG 1.1//EN"
 "http://www.w3.org/Graphics/SVG/1.1/DTD/svg11.dtd">
<!-- Generated by graphviz version 2.43.0 (0)
 -->
<!-- Title: DUMP Pages: 1 -->
<svg width="868pt" height="378pt"
 viewBox="0.00 0.00 868.00 378.00" xmlns="http://www.w3.org/2000/svg" xmlns:xlink="http://www.w3.org/1999/xlink">
<g id="graph0" class="graph" transform="scale(1 1) rotate(0) translate(4 374)">
<title>DUMP</title>
<polygon fill="white" stroke="transparent" points="-4,4 -4,-374 864,-374 864,4 -4,4"/>
<!-- node0 -->
<g id="node1" class="node">
<title>node0</title>
<polygon fill="#0bdfee" stroke="transparent" points="232.5,-207 232.5,-366 630.5,-366 630.5,-207 232.5,-207"/>
<polygon fill="#ffffff" stroke="transparent" points="235.5,-326.5 235.5,-362.5 627.5,-362.5 627.5,-326.5 235.5,-326.5"/>
<polygon fill="none" stroke="#383838" stroke-width="2" points="236.5,-327.5 236.5,-361.5 626.5,-361.5 626.5,-327.5 236.5,-327.5"/>
<text text-anchor="start" x="397.5" y="-338.3" font-family="Arial" font-size="24.00">node0</text>
<polygon fill="#0022ff" stroke="transparent" stroke-width="2" points="235.5,-287.5 235.5,-323.5 627.5,-323.5 627.5,-287.5 235.5,-287.5"/>
<polygon fill="none" stroke="#000000" stroke-width="2" points="236.5,-288.5 236.5,-322.5 626.5,-322.5 626.5,-288.5 236.5,-288.5"/>
<text text-anchor="start" x="337.5" y="-299.3" font-family="Arial" font-size="24.00">0x503000000250</text>
<polygon fill="#c5a1e6" stroke="transparent" stroke-width="2" points="235.5,-248.5 235.5,-284.5 627.5,-284.5 627.5,-248.5 235.5,-248.5"/>
<polygon fill="none" stroke="#000000" stroke-width="2" points="236.5,-249.5 236.5,-283.5 626.5,-283.5 626.5,-249.5 236.5,-249.5"/>
<text text-anchor="start" x="373.5" y="-260.3" font-family="Arial" font-size="24.00">не летает </text>
<polygon fill="#00ff44" stroke="transparent" stroke-width="2" points="235.5,-209.5 235.5,-245.5 426.5,-245.5 426.5,-209.5 235.5,-209.5"/>
<polygon fill="none" stroke="#000000" stroke-width="2" points="236.5,-210.5 236.5,-244.5 425.5,-244.5 425.5,-210.5 236.5,-210.5"/>
<text text-anchor="start" x="240.5" y="-221.3" font-family="Arial" font-size="24.00">0x5030000001f0</text>
<polygon fill="#00eeff" stroke="transparent" stroke-width="2" points="429.5,-209.5 429.5,-245.5 627.5,-245.5 627.5,-209.5 429.5,-209.5"/>
<polygon fill="none" stroke="#000000" stroke-width="2" points="430.5,-210.5 430.5,-244.5 626.5,-244.5 626.5,-210.5 430.5,-210.5"/>
<text text-anchor="start" x="434.5" y="-221.3" font-family="Arial" font-size="24.00">0x503000000220</text>
</g>
<!-- node1 -->
<g id="node2" class="node">
<title>node1</title>
<polygon fill="#0bdfee" stroke="transparent" points="8,-4 8,-163 413,-163 413,-4 8,-4"/>
<polygon fill="#ffffff" stroke="transparent" points="11.5,-123.5 11.5,-159.5 410.5,-159.5 410.5,-123.5 11.5,-123.5"/>
<polygon fill="none" stroke="#383838" stroke-width="2" points="12.5,-124.5 12.5,-158.5 409.5,-158.5 409.5,-124.5 12.5,-124.5"/>
<text text-anchor="start" x="177" y="-135.3" font-family="Arial" font-size="24.00">node1</text>
<polygon fill="#00ff44" stroke="transparent" stroke-width="2" points="11.5,-84.5 11.5,-120.5 410.5,-120.5 410.5,-84.5 11.5,-84.5"/>
<polygon fill="none" stroke="#000000" stroke-width="2" points="12.5,-85.5 12.5,-119.5 409.5,-119.5 409.5,-85.5 12.5,-85.5"/>
<text text-anchor="start" x="120.5" y="-96.3" font-family="Arial" font-size="24.00">0x5030000001f0</text>
<polygon fill="#c5a1e6" stroke="transparent" stroke-width="2" points="11.5,-45.5 11.5,-81.5 410.5,-81.5 410.5,-45.5 11.5,-45.5"/>
<polygon fill="none" stroke="#000000" stroke-width="2" points="12.5,-46.5 12.5,-80.5 409.5,-80.5 409.5,-46.5 12.5,-46.5"/>
<text text-anchor="start" x="162.5" y="-57.3" font-family="Arial" font-size="24.00">машина </text>
<polygon fill="#cccccc" stroke="transparent" stroke-width="2" points="11.5,-6.5 11.5,-42.5 209.5,-42.5 209.5,-6.5 11.5,-6.5"/>
<polygon fill="none" stroke="#000000" stroke-width="2" points="12.5,-7.5 12.5,-41.5 208.5,-41.5 208.5,-7.5 12.5,-7.5"/>
<text text-anchor="start" x="16.5" y="-18.3" font-family="Arial" font-size="24.00">0x000000000000</text>
<polygon fill="#cccccc" stroke="transparent" stroke-width="2" points="212.5,-6.5 212.5,-42.5 410.5,-42.5 410.5,-6.5 212.5,-6.5"/>
<polygon fill="none" stroke="#000000" stroke-width="2" points="213.5,-7.5 213.5,-41.5 409.5,-41.5 409.5,-7.5 213.5,-7.5"/>
<text text-anchor="start" x="217.5" y="-18.3" font-family="Arial" font-size="24.00">0x000000000000</text>
</g>
<!-- node0&#45;&gt;node1 -->
<g id="edge1" class="edge">
<title>node0:l&#45;&gt;node1:n</title>
<path fill="none" stroke="#4d00a6" stroke-width="2" d="M234.5,-227.5C234.5,-227.5 221,-193.47 214.25,-176.45"/>
<polygon fill="#4d00a6" stroke="#4d00a6" stroke-width="2" points="217.44,-175 210.5,-167 210.93,-177.59 217.44,-175"/>
</g>
<!-- node2 -->
<g id="node3" class="node">
<title>node2</title>
<polygon fill="#0bdfee" stroke="transparent" points="447,-4 447,-163 852,-163 852,-4 447,-4"/>
<polygon fill="#ffffff" stroke="transparent" points="450.5,-123.5 450.5,-159.5 849.5,-159.5 849.5,-123.5 450.5,-123.5"/>
<polygon fill="none" stroke="#383838" stroke-width="2" points="451.5,-124.5 451.5,-158.5 848.5,-158.5 848.5,-124.5 451.5,-124.5"/>
<text text-anchor="start" x="616" y="-135.3" font-family="Arial" font-size="24.00">node2</text>
<polygon fill="#00eeff" stroke="transparent" stroke-width="2" points="450.5,-84.5 450.5,-120.5 849.5,-120.5 849.5,-84.5 450.5,-84.5"/>
<polygon fill="none" stroke="#000000" stroke-width="2" points="451.5,-85.5 451.5,-119.5 848.5,-119.5 848.5,-85.5 451.5,-85.5"/>
<text text-anchor="start" x="556" y="-96.3" font-family="Arial" font-size="24.00">0x503000000220</text>
<polygon fill="#c5a1e6" stroke="transparent" stroke-width="2" points="450.5,-45.5 450.5,-81.5 849.5,-81.5 849.5,-45.5 450.5,-45.5"/>
<polygon fill="none" stroke="#000000" stroke-width="2" points="451.5,-46.5 451.5,-80.5 848.5,-80.5 848.5,-46.5 451.5,-46.5"/>
<text text-anchor="start" x="600" y="-57.3" font-family="Arial" font-size="24.00">самолет </text>
<polygon fill="#cccccc" stroke="transparent" stroke-width="2" points="450.5,-6.5 450.5,-42.5 648.5,-42.5 648.5,-6.5 450.5,-6.5"/>
<polygon fill="none" stroke="#000000" stroke-width="2" points="451.5,-7.5 451.5,-41.5 647.5,-41.5 647.5,-7.5 451.5,-7.5"/>
<text text-anchor="start" x="455.5" y="-18.3" font-family="Arial" font-size="24.00">0x000000000000</text>
<polygon fill="#cccccc" stroke="transparent" stroke-width="2" points="651.5,-6.5 651.5,-42.5 849.5,-42.5 849.5,-6.5 651.5,-6.5"/>
<polygon fill="none" stroke="#000000" stroke-width="2" points="652.5,-7.5 652.5,-41.5 848.5,-41.5 848.5,-7.5 652.5,-7.5"/>
<text text-anchor="start" x="656.5" y="-18.3" font-family="Arial" font-size="24.00">0x000000000000</text>
</g>
<!-- node0&#45;&gt;node2 -->
<g id="edge2" class="edge">
<title>node0:r&#45;&gt;node2:n</title>
<path fill="none" stroke="#4d00a6" stroke-width="2" d="M628.5,-227.5C628.5,-227.5 640.31,-193.47 646.22,-176.45"/>
<polygon fill="#4d00a6" stroke="#4d00a6" stroke-width="2" points="649.53,-177.59 649.5,-167 642.91,-175.3 649.53,-177.59"/>
</g>
</g>
</svg>
